<svg width="25" height="11" viewBox="0 0 25 11" fill="none" xmlns="http://www.w3.org/2000/svg">
<path d="M12.3055 7.861C11.0551 7.66645 10.2525 6.63942 10.5129 5.56706C10.7733 4.4947 11.9982 3.78309 13.2486 3.97764C14.4991 4.17219 15.3017 5.19922 15.0412 6.27159C14.7808 7.34395 13.556 8.05555 12.3055 7.861ZM2.93453 7.74641C1.68407 7.55186 0.881492 6.52482 1.14192 5.45246C1.40235 4.3801 2.62716 3.6685 3.87762 3.86304C5.12808 4.05759 5.93066 5.08463 5.67023 6.15699C5.40981 7.22935 4.18499 7.94095 2.93453 7.74641ZM21.6765 7.9756C20.4261 7.78105 19.6235 6.75402 19.8839 5.68166C20.1443 4.6093 21.3691 3.89769 22.6196 4.09224C23.8701 4.28679 24.6726 5.31382 24.4122 6.38618C24.1518 7.45854 22.927 8.17015 21.6765 7.9756Z" fill="#0E0E0E"/>
</svg>
